{
  "accessors": [
    {
      "bufferView": 2,
      "componentType": 5126,
      "count": 1321,
      "max": [
        5.5489702224731445,
        5.966108798980713,
        0.09667100012302399
      ],
      "min": [
        -5.394712924957275,
        -6.314355850219727,
        -0.5728260278701782
      ],
      "type": "VEC3"
    },
    {
      "bufferView": 2,
      "byteOffset": 15852,
      "componentType": 5126,
      "count": 1321,
      "max": [
        0.9987391829490662,
        0.9994387626647949,
        0.0
      ],
      "min": [
        -0.9986312985420227,
        -0.9988424777984619,
        -1.0
      ],
      "type": "VEC3"
    },
    {
      "bufferView": 1,
      "componentType": 5126,
      "count": 1321,
      "max": [
        0.9158849716186523,
        0.9999070167541504
      ],
      "min": [
        0.050873998552560806,
        9.300000237999484e-05
      ],
      "type": "VEC2"
    },
    {
      "bufferView": 0,
      "componentType": 5125,
      "count": 3693,
      "type": "SCALAR"
    },
    {
      "bufferView": 2,
      "byteOffset": 31704,
      "componentType": 5126,
      "count": 9144,
      "max": [
        5.5489702224731445,
        5.966108798980713,
        0.10021399706602097
      ],
      "min": [
        -5.394712924957275,
        -6.314355850219727,
        -0.28338098526000977
      ],
      "type": "VEC3"
    },
    {
      "bufferView": 2,
      "byteOffset": 141432,
      "componentType": 5126,
      "count": 9144,
      "max": [
        0.8573371767997742,
        0.7920264601707458,
        0.9999998807907104
      ],
      "min": [
        -0.8164157867431641,
        -0.7838093638420105,
        0.5109221935272217
      ],
      "type": "VEC3"
    },
    {
      "bufferView": 3,
      "componentType": 5126,
      "count": 9144,
      "max": [
        0.9998247623443604,
        0.48789986968040466,
        0.8162539601325989,
        1.0
      ],
      "min": [
        0.511206328868866,
        -0.46547701954841614,
        -0.8593651652336121,
        1.0
      ],
      "type": "VEC4"
    },
    {
      "bufferView": 1,
      "byteOffset": 10568,
      "componentType": 5126,
      "count": 9144,
      "max": [
        0.9158849716186523,
        0.9999070167541504
      ],
      "min": [
        0.050873998552560806,
        9.300000237999484e-05
      ],
      "type": "VEC2"
    },
    {
      "bufferView": 0,
      "byteOffset": 14772,
      "componentType": 5125,
      "count": 53571,
      "type": "SCALAR"
    }
  ],
  "asset": {
    "extras": {
      "author": "jolabra33 (https://sketchfab.com/jolabra33)",
      "license": "CC-BY-4.0 (http://creativecommons.org/licenses/by/4.0/)",
      "source": "https://sketchfab.com/3d-models/pavimento-pompeya-op-f37270b77dc04e7cb654bfe32765b756",
      "title": "Pavimento Pompeya OP"
    },
    "generator": "Sketchfab-12.68.0",
    "version": "2.0"
  },
  "bufferViews": [
    {
      "buffer": 0,
      "byteLength": 229056,
      "name": "floatBufferViews",
      "target": 34963
    },
    {
      "buffer": 0,
      "byteLength": 83720,
      "byteOffset": 229056,
      "byteStride": 8,
      "name": "floatBufferViews",
      "target": 34962
    },
    {
      "buffer": 0,
      "byteLength": 251160,
      "byteOffset": 312776,
      "byteStride": 12,
      "name": "floatBufferViews",
      "target": 34962
    },
    {
      "buffer": 0,
      "byteLength": 146304,
      "byteOffset": 563936,
      "byteStride": 16,
      "name": "floatBufferViews",
      "target": 34962
    }
  ],
  "buffers": [
    {
      "byteLength": 710240,
      "uri": "scene.bin"
    }
  ],
  "images": [
    {
      "uri": "textures/Pavimento_lp_baseColor.jpeg"
    },
    {
      "uri": "textures/Pavimento_lp_metallicRoughness.png"
    },
    {
      "uri": "textures/Pavimento_lp_normal.png"
    }
  ],
  "materials": [
    {
      "doubleSided": true,
      "name": "Borde",
      "pbrMetallicRoughness": {
        "baseColorFactor": [
          0.5890197192822643,
          0.5890197192822643,
          0.5890197192822643,
          1.0
        ],
        "metallicFactor": 0.0,
        "roughnessFactor": 0.3357965024671502
      }
    },
    {
      "doubleSided": true,
      "name": "Pavimento_lp",
      "normalTexture": {
        "index": 2,
        "scale": 0.6816639927434194
      },
      "occlusionTexture": {
        "index": 1
      },
      "pbrMetallicRoughness": {
        "baseColorTexture": {
          "index": 0
        },
        "metallicFactor": 0.0,
        "metallicRoughnessTexture": {
          "index": 1
        }
      }
    }
  ],
  "meshes": [
    {
      "name": "Object_0",
      "primitives": [
        {
          "attributes": {
            "NORMAL": 1,
            "POSITION": 0,
            "TEXCOORD_0": 2
          },
          "indices": 3,
          "material": 0,
          "mode": 4
        }
      ]
    },
    {
      "name": "Object_1",
      "primitives": [
        {
          "attributes": {
            "NORMAL": 5,
            "POSITION": 4,
            "TANGENT": 6,
            "TEXCOORD_0": 7
          },
          "indices": 8,
          "material": 1,
          "mode": 4
        }
      ]
    }
  ],
  "nodes": [
    {
      "children": [
        1
      ],
      "matrix": [
        1.0,
        0.0,
        0.0,
        0.0,
        0.0,
        2.220446049250313e-16,
        -1.0,
        0.0,
        0.0,
        1.0,
        2.220446049250313e-16,
        0.0,
        0.0,
        0.0,
        0.0,
        1.0
      ],
      "name": "Sketchfab_model"
    },
    {
      "children": [
        2,
        3
      ],
      "name": "Pavimento_pompeya.obj.cleaner.materialmerger.gles"
    },
    {
      "mesh": 0,
      "name": "Object_2"
    },
    {
      "mesh": 1,
      "name": "Object_3"
    }
  ],
  "samplers": [
    {
      "magFilter": 9729,
      "minFilter": 9987,
      "wrapS": 10497,
      "wrapT": 10497
    }
  ],
  "scene": 0,
  "scenes": [
    {
      "name": "Sketchfab_Scene",
      "nodes": [
        0
      ]
    }
  ],
  "textures": [
    {
      "sampler": 0,
      "source": 0
    },
    {
      "sampler": 0,
      "source": 1
    },
    {
      "sampler": 0,
      "source": 2
    }
  ]
}
